<?xml version="1.0" encoding="UTF-8"?>
<svg width="34px" height="40px" viewBox="0 0 34 40" version="1.1" xmlns="http://www.w3.org/2000/svg" xmlns:xlink="http://www.w3.org/1999/xlink">
    <!-- Generator: Sketch 51.3 (57544) - http://www.bohemiancoding.com/sketch -->
    <title>casa</title>
    <desc>Created with Sketch.</desc>
    <defs></defs>
    <g id="Page-1" stroke="none" stroke-width="1" fill="none" fill-rule="evenodd" stroke-linecap="round">
        <g id="Desktop-HD-1" transform="translate(-402.000000, -1286.000000)" stroke="#3182BA" stroke-width="1.63148479">
            <g id="Group-7" transform="translate(128.000000, 1148.000000)">
                <g id="casa" transform="translate(275.000000, 139.000000)">
                    <path d="M29.6716308,3.67306383 L29.6716308,32.7794468 C29.6716308,35.4580426 27.4669128,37.6305106 24.7485538,37.6305106 L6.69727179,37.6305106 C3.97891282,37.6305106 1.77419487,35.4580426 1.77419487,32.7794468 L1.77419487,3.67306383" id="Stroke-1254"></path>
                    <polygon id="Stroke-1255" points="14.081641 14.9922128 17.3636923 14.9922128 17.3636923 8.52412766 14.081641 8.52412766"></polygon>
                    <polygon id="Stroke-1256" points="14.081641 26.3113617 17.3636923 26.3113617 17.3636923 19.8432766 14.081641 19.8432766"></polygon>
                    <polygon id="Stroke-1257" points="6.69702564 14.9922128 9.97907692 14.9922128 9.97907692 8.52412766 6.69702564 8.52412766"></polygon>
                    <polygon id="Stroke-1258" points="21.4662564 14.9922128 24.7483077 14.9922128 24.7483077 8.52412766 21.4662564 8.52412766"></polygon>
                    <polygon id="Stroke-1259" points="6.69702564 26.3113617 9.97907692 26.3113617 9.97907692 19.8432766 6.69702564 19.8432766"></polygon>
                    <polygon id="Stroke-1260" points="21.4662564 26.3113617 24.7483077 26.3113617 24.7483077 19.8432766 21.4662564 19.8432766"></polygon>
                    <polyline id="Stroke-1261" points="12.4408615 37.6305106 12.4408615 31.1624255 19.0049641 31.1624255 19.0049641 37.6305106"></polyline>
                    <polygon id="Stroke-1262" points="0.132923077 3.67306383 31.3124103 3.67306383 31.3124103 0.439021277 0.132923077 0.439021277"></polygon>
                </g>
            </g>
        </g>
    </g>
</svg>