<?xml version="1.0" encoding="UTF-8"?>
<svg width="38px" height="38px" viewBox="0 0 38 38" version="1.1" xmlns="http://www.w3.org/2000/svg" xmlns:xlink="http://www.w3.org/1999/xlink">
    <!-- Generator: Sketch 51.3 (57544) - http://www.bohemiancoding.com/sketch -->
    <title>partenon</title>
    <desc>Created with Sketch.</desc>
    <defs></defs>
    <g id="Page-1" stroke="none" stroke-width="1" fill="none" fill-rule="evenodd">
        <g id="Desktop-HD-1" transform="translate(-400.000000, -895.000000)" stroke="#3182BA" stroke-width="1.53191489">
            <g id="Group-9" transform="translate(128.000000, 868.000000)">
                <g id="partenon" transform="translate(273.000000, 28.000000)">
                    <polygon id="Stroke-1301" points="35.3583574 9.60740426 0.124314894 9.60740426 0.124314894 6.54357447 17.7413362 0.415914894 35.3583574 6.54357447"></polygon>
                    <path d="M35.3583574,35.6499574 L0.124314894,35.6499574 L0.124314894,32.5861277 C0.124314894,30.8941277 1.49614468,29.5222979 3.18814468,29.5222979 L32.2945277,29.5222979 C33.9865277,29.5222979 35.3583574,30.8941277 35.3583574,32.5861277 L35.3583574,35.6499574 Z" id="Stroke-1302"></path>
                    <polygon id="Stroke-1303" points="4.71982979 29.5222979 9.31557447 29.5222979 9.31557447 9.60740426 4.71982979 9.60740426"></polygon>
                    <polygon id="Stroke-1304" points="15.443234 29.5222979 20.0389787 29.5222979 20.0389787 9.60740426 15.443234 9.60740426"></polygon>
                    <polygon id="Stroke-1305" points="26.1666383 29.5222979 30.762383 29.5222979 30.762383 9.60740426 26.1666383 9.60740426"></polygon>
                </g>
            </g>
        </g>
    </g>
</svg>